<?xml version="1.0" encoding="UTF-8"?>
<!--
  Icon: cv
  Set: Pepicons Pencil
  Author: CyCraft (https://github.com/CyCraft/pepicons)
  License: CC BY 4.0 (https://github.com/CyCraft/pepicons/blob/dev/LICENSE)
  Source: https://iconify.design
-->
<svg xmlns="http://www.w3.org/2000/svg"
     xmlns:xlink="http://www.w3.org/1999/xlink"
     viewBox="0 0 20 20"
     width="20"
     height="20">
  <title>User Profile Document Icon</title>
  <metadata>
    <rdf:RDF xmlns:rdf="http://www.w3.org/1999/02/22-rdf-syntax-ns#"
             xmlns:dc="http://purl.org/dc/elements/1.1/"
             xmlns:cc="http://creativecommons.org/ns#">
      <cc:Work rdf:about="">
        <dc:title>User Profile Document Icon</dc:title>
        <dc:description>A minimalist icon of a document featuring a user profile image and text lines, ideal for representing resumes, user profiles, or personal information forms in digital or print designs.</dc:description>
        <dc:creator>
          <cc:Agent>
            <dc:title>CyCraft</dc:title>
          </cc:Agent>
        </dc:creator>
        <dc:source>https://github.com/CyCraft/pepicons</dc:source>
        <dc:rights>
          <cc:Agent>
            <dc:title>CyCraft</dc:title>
          </cc:Agent>
        </dc:rights>
        <cc:license rdf:resource="https://github.com/CyCraft/pepicons/blob/dev/LICENSE"/>
        <dc:format>image/svg+xml</dc:format>
        <dc:type rdf:resource="http://purl.org/dc/dcmitype/StillImage"/>
        <dc:subject>
          <rdf:Bag>
            <rdf:li>user-profile</rdf:li>
            <rdf:li>document-icon</rdf:li>
            <rdf:li>resume-icon</rdf:li>
            <rdf:li>personal-information</rdf:li>
            <rdf:li>profile-document</rdf:li>
            <rdf:li>ID-card</rdf:li>
            <rdf:li>user-data</rdf:li>
            <rdf:li>profile-form</rdf:li>
            <rdf:li>CV-icon</rdf:li>
            <rdf:li>application-form</rdf:li>
            <rdf:li>identity-document</rdf:li>
            <rdf:li>profile-page</rdf:li>
            <rdf:li>user-card</rdf:li>
            <rdf:li>personal-details</rdf:li>
            <rdf:li>job-application</rdf:li>
          </rdf:Bag>
        </dc:subject>
      </cc:Work>
      <cc:License rdf:about="https://github.com/CyCraft/pepicons/blob/dev/LICENSE">
        <dc:title>CC BY 4.0 (CC-BY-4.0)</dc:title>
      </cc:License>
    </rdf:RDF>
  </metadata>
  <g fill="none"><path fill="currentColor" d="M6.5 12.5a.5.5 0 0 1 0-1h7a.5.5 0 0 1 0 1zm0 2.5a.5.5 0 0 1 0-1h7a.5.5 0 0 1 0 1z"/><path fill="currentColor" fill-rule="evenodd" d="M11.185 1H4.5A1.5 1.5 0 0 0 3 2.5v15A1.5 1.5 0 0 0 4.5 19h11a1.5 1.5 0 0 0 1.5-1.5V7.202a1.5 1.5 0 0 0-.395-1.014l-4.314-4.702A1.5 1.5 0 0 0 11.185 1M4 2.5a.5.5 0 0 1 .5-.5h6.685a.5.5 0 0 1 .369.162l4.314 4.702a.5.5 0 0 1 .132.338V17.5a.5.5 0 0 1-.5.5h-11a.5.5 0 0 1-.5-.5z" clip-rule="evenodd"/><path stroke="currentColor" stroke-linecap="round" stroke-linejoin="round" d="M11.5 2.1v4.7h4.7"/><path fill="currentColor" d="M8.134 6.133a1.067 1.067 0 1 0 0-2.133a1.067 1.067 0 0 0 0 2.133"/><path fill="currentColor" fill-rule="evenodd" d="M10.266 8.444c0-1.134-.955-1.955-2.133-1.955S6 7.309 6 8.444v.534a.356.356 0 0 0 .356.355h3.555a.356.356 0 0 0 .355-.355z" clip-rule="evenodd"/></g>
</svg>