<svg xmlns="http://www.w3.org/2000/svg" version="1.1" viewBox="-5.0 -10.0 110.0 135.0">
 <path d="m92.039 57.914-19.637-9.5352c-0.92188-0.44922-1.668-1.1953-2.1172-2.1172l-9.5352-19.637c-0.43359-0.89453-1.7109-0.89453-2.1445 0l-9.5352 19.637c-0.44922 0.92188-1.1953 1.668-2.1172 2.1172l-19.637 9.5352c-0.89453 0.43359-0.89453 1.7109 0 2.1445l19.637 9.5352c0.92188 0.44922 1.668 1.1953 2.1172 2.1172l9.5352 19.637c0.43359 0.89453 1.7109 0.89453 2.1445 0l9.5352-19.637c0.44922-0.92188 1.1953-1.668 2.1172-2.1172l19.637-9.5352c0.89453-0.43359 0.89453-1.7109 0-2.1445z"/>
 <path d="m9.3438 28.258 10.328 5.0156c0.92188 0.44922 1.668 1.1953 2.1172 2.1172l5.0156 10.328c0.43359 0.89453 1.7109 0.89453 2.1445 0l5.0156-10.328c0.44922-0.92188 1.1953-1.668 2.1172-2.1172l10.328-5.0156c0.89453-0.43359 0.89453-1.7109 0-2.1445l-10.328-5.0156c-0.92188-0.44922-1.668-1.1953-2.1172-2.1172l-5.0156-10.328c-0.43359-0.89453-1.7109-0.89453-2.1445 0l-5.0156 10.328c-0.44922 0.92188-1.1953 1.668-2.1172 2.1172l-10.328 5.0156c-0.89453 0.43359-0.89453 1.7109 0 2.1445z"/>
 <path d="m29.816 75.891-5.2109-2.5312c-0.92188-0.44922-1.668-1.1953-2.1172-2.1172l-2.5312-5.2109c-0.43359-0.89453-1.7109-0.89453-2.1445 0l-2.5312 5.2109c-0.44922 0.92187-1.1953 1.668-2.1172 2.1172l-5.2109 2.5312c-0.89453 0.43359-0.89453 1.7109 0 2.1445l5.2109 2.5312c0.92188 0.44922 1.668 1.1953 2.1172 2.1172l2.5312 5.2109c0.43359 0.89453 1.7109 0.89453 2.1445 0l2.5312-5.2109c0.44922-0.92188 1.1953-1.668 2.1172-2.1172l5.2109-2.5312c0.89453-0.43359 0.89453-1.7109 0-2.1445z"/>
<text x="0.0" y="117.5" font-size="5.0" font-weight="bold" font-family="Arbeit Regular, Helvetica, Arial-Unicode, Arial, Sans-serif" fill="#000000">Created by Angelo Cagnolino</text><text x="0.0" y="122.5" font-size="5.0" font-weight="bold" font-family="Arbeit Regular, Helvetica, Arial-Unicode, Arial, Sans-serif" fill="#000000">from Noun Project</text></svg>